Simulation
nRows=40
nColumns=15
endheader
time  TH_x TH_y TH_z SC_y  SC_z  SC_x  AC_y  AC_z  AC_x  GH_y  GH_z  GH_yy  EL_x  PS_y
0.0  0.000000  0.000000  0.000000  -40.97484877243665  6.293857566463187  5.290427962726946  44.211623860749036  7.6381686228586245  0.07113506971443347  175.60301835748007  6.731797898963363  -150.41252003754857  22.642338426103674  120.000000
0.05745  0.000000  0.000000  0.000000  -38.98095273760024  5.6589354690850024  3.072208224410923  43.63159211139732  7.795033424824396  0.39863832980519137  175.90981583591093  3.418517639612092  -152.13612245021727  22.05537666482119  120.000000
0.1149  0.000000  0.000000  0.000000  -37.143776439122995  4.864753178199484  0.8439588134518518  43.13999997188077  7.772862228555394  0.7672177926180083  176.6971032461338  0.27285793050879203  -154.3309248391947  21.65181768647665  120.000000
0.17235  0.000000  0.000000  0.000000  -35.56241055805045  3.977985469724627  -1.3037540749941334  42.7682496797057  7.633468570171181  1.1997298555196958  -2.597308744332477  2.7530847879588745  23.551604859803184  21.510407574478453  120.000000
0.2298  0.000000  0.000000  0.000000  -34.27791879334896  3.0842728473413743  -3.304500218290531  42.529202866877505  7.466213736972755  1.7136266323787128  -1.9800373818418102  5.72818762224298  21.511080571993308  21.63874658368309  120.000000
0.28725  0.000000  0.000000  0.000000  -33.29477594880409  2.2751159461885107  -5.121366666544031  42.40361899238588  7.37012142289523  2.321225253196342  -1.7469565514284517  8.724762692797203  19.829302924626127  21.972329012594653  120.000000
0.3447  0.000000  0.000000  0.000000  -32.6122132232098  1.6363070814389546  -6.740637093373115  42.35206687814444  7.424354983325523  3.025123870916072  -1.880848100290171  11.805133714131504  18.470812904287623  22.410155341451258  120.000000
0.40215  0.000000  0.000000  0.000000  -32.24105325181752  1.2324684252775022  -8.147590078115345  42.333815194786894  7.661157807641776  3.8048043363074617  -2.2586680142437956  15.020339184571101  17.296542251948793  22.84134525839917  120.000000
0.4596  0.000000  0.000000  0.000000  -32.19319006901845  1.1092406930271381  -9.304731264312833  42.31862050717858  8.053760817331355  4.61855051141583  -2.7431285139938226  18.396439951551347  16.1662186030124  23.173279340647237  120.000000
0.51705  0.000000  0.000000  0.000000  -32.46635401874862  1.2899534719418713  -10.173879383810139  42.29385023817363  8.545893773746847  5.433430324669185  -3.2260901081383975  21.92302299428016  14.986371378309396  23.344173364931596  120.000000
0.5745  0.000000  0.000000  0.000000  -33.045365034250025  1.7733871936481727  -10.758678160621423  42.26712081890529  9.091863858932518  6.258942940071397  -3.6139729063714197  25.558948322508016  13.69493818050102  23.332669527328626  120.000000
0.63195  0.000000  0.000000  0.000000  -33.9147328717396  2.5293096512840734  -11.092709165543317  42.26900249536156  9.65920275029888  7.131068933847871  -3.809357794187043  29.252578089104393  12.232857072697374  23.15134973905445  120.000000
0.6894  0.000000  0.000000  0.000000  -35.05820287815989  3.503392152778639  -11.20474090760555  42.34604551260333  10.216944235358225  8.07791359478046  -3.7265475963748025  32.951095471250106  10.545268524829462  22.83234376088445  120.000000
0.74685  0.000000  0.000000  0.000000  -36.4511658548532  4.62948747282282  -11.110162337152488  42.54659035694435  10.743877657707166  9.104850963050467  -3.3199354383301394  36.59963325039037  8.596167258676727  22.413917370865928  120.000000
0.8043  0.000000  0.000000  0.000000  -38.052925280127276  5.838504137736995  -10.812584395747711  42.901227722635234  11.23690474052393  10.191467219059671  -2.602539628802812  40.13772610056693  6.380565514113771  21.933015175447  120.000000
0.86175  0.000000  0.000000  0.000000  -39.80089853887283  7.059385067631162  -10.306610997042347  43.407754347742085  11.713870631007092  11.292951857743791  -1.6475524604019098  43.49956194781865  3.931089827911501  21.421901989226978  120.000000
0.9192  0.000000  0.000000  0.000000  -41.608249194497816  8.234322361607617  -9.579921067096715  44.03376040868703  12.2013738484167  12.35291324490061  -0.5563226075461122  46.6198651039817  1.306443076517601  20.90755079423425  120.000000
0.97665  0.000000  0.000000  0.000000  -43.37426040012871  9.328208165221023  -8.613592096305352  44.72177945265356  12.718335186506021  13.318042288658958  0.5700248219775322  49.448010218675826  -1.410018800650251  20.410922225107623  120.000000
1.0341  0.000000  0.000000  0.000000  -45.006846706321454  10.331779427114604  -7.394033393894199  45.40296251676936  13.264933111726569  14.143697293271181  1.6463150586121995  51.95748690743356  -4.106642482781797  19.944077249899344  120.000000
1.09155  0.000000  0.000000  0.000000  -46.444627861624134  11.247498688867145  -5.923966316302112  46.01251449597514  13.819021109417122  14.804499116233961  2.6112508285503426  54.14688266327936  -6.649838458618863  19.50904270540047  120.000000
1.149  0.000000  0.000000  0.000000  -47.6639975312688  12.076489465658694  -4.233119076110105  46.50783291020248  14.345363312710665  15.293218459530092  3.4311875728567425  56.032729812532644  -8.90734732141  19.102206025413228  120.000000
1.20645  0.000000  0.000000  0.000000  -48.672771467741995  12.812121485860812  -2.382434173864634  46.877000150750504  14.806914153687554  15.618515879285257  4.100447006340234  57.64459949504026  -10.780802137554023  18.71942969582757  120.000000
1.2639  0.000000  0.000000  0.000000  -49.49503009248927  13.439799056058861  -0.46091947971483266  47.132449034614034  15.174124892109143  15.798015988602433  4.634155351206677  59.01862295283182  -12.23066810642617  18.36080294374128  120.000000
1.32135  0.000000  0.000000  0.000000  -50.15501000265828  13.943052442661646  1.4214996197816527  47.303048493667745  15.429437017777731  15.849501350676933  5.056878015119104  60.190297503855824  -13.283358216467038  18.030589033967626  120.000000
1.3788  0.000000  0.000000  0.000000  -50.66556295771816  14.30725545166583  3.146488383472844  47.422206021673176  15.566857571554475  15.78831878609813  5.393504327090922  61.18621097455856  -14.017150653070717  17.736320832670227  120.000000
1.43625  0.000000  0.000000  0.000000  -51.025340465814324  14.52533733592247  4.595844591172042  47.520687645423614  15.588371016418098  15.625695785903053  5.663889847987016  62.01952320882125  -14.535102089979672  17.48604679489863  120.000000
1.4937  0.000000  0.000000  0.000000  -51.223323290058424  14.597453192574756  5.661480669693336  47.61977043391094  15.499229019489306  15.373237570066447  5.881242869811028  62.68687916171576  -14.93587192024132  17.28724460145946  120.000000
1.55115  0.000000  0.000000  0.000000  -51.246556722032246  14.529899340893357  6.2518297075519325  47.72916380688961  15.305201779837365  15.046345628972938  6.052797893277989  63.168710006932734  -15.292437704528497  17.145583159782596  120.000000
1.6086  0.000000  0.000000  0.000000  -51.08629090525322  14.329200640416648  6.300276355915255  47.84532257176432  15.013577536939618  14.669274200944265  6.180817501656757  63.43136953202517  -15.643014579651222  17.06502574364936  120.000000
1.66605  0.000000  0.000000  0.000000  -50.74045008423186  13.996816546762224  5.772706816066208  47.95212824482332  14.639093646305016  14.276563021188203  6.263629074020041  63.43169330871725  -15.993739292567636  17.046328746300535  120.000000
1.7235  0.000000  0.000000  0.000000  -50.21182800988351  13.526508819813985  4.673489002394794  48.02280214320816  14.211889887859131  13.909591393209597  6.295051128049433  63.12308258024684  -16.32881468888152  17.083652378692822  120.000000
1.78095  0.000000  0.000000  0.000000  -49.50565090280556  12.905574964393432  3.0484055165243333  48.02315545814322  13.7835420077037  13.6092464779196  6.264439960348542  62.46056261495911  -16.623304246542254  17.161466785161036  120.000000
1.8384  0.000000  0.000000  0.000000  -48.62713190959472  12.123976213627792  0.9793610781713691  47.917324352083284  13.425257656646721  13.404637444836073  6.156629638582106  61.404076780616464  -16.855380252536644  17.255059762086283  120.000000
1.89585  0.000000  0.000000  0.000000  -47.58244520614176  11.18108536015497  -1.4241943279103129  47.67192040050389  13.217401891248876  13.307508612761128  5.955675230340215  59.919367467590874  -17.014866702730394  17.336589361031344  120.000000
1.9533  0.000000  0.000000  0.000000  -46.38251842972066  10.092295840325725  -4.039920513670934  47.2617901951137  13.233587226020816  13.309394340621258  5.650754356943903  57.98235159584271  -17.108474506071882  17.382606336988005  120.000000
2.01075  0.000000  0.000000  0.000000  -45.05305241407705  8.887947720678081  -6.744913988325614  46.67400238012051  13.523201320035596  13.387511430544949  5.244765294350332  55.58588198497388  -17.16042898842447  17.38071232596622  120.000000
2.0682  0.000000  0.000000  0.000000  -43.64257310759206  7.609573555655711  -9.427766952524411  45.912610883187725  14.098996993334728  13.514117722762425  4.764113464950527  52.747870460443266  -17.209330220076502  17.33069601417255  120.000000
2.1256500000000003  0.000000  0.000000  0.000000  -42.22370781361378  6.306002513729624  -11.998352120308182  45.00127120921152  14.932356013660458  13.665763499192897  4.264232480244161  49.5132963546602  -17.29923358025865  17.237864921243386  120.000000
2.1831  0.000000  0.000000  0.000000  -40.884421746196224  5.0279657487176825  -14.391607775485934  43.97656062104158  15.959165047144284  13.832558487053928  3.827557395404758  45.95070248717076  -17.464437439149624  17.105490823335696  120.000000
2.24055  0.000000  0.000000  0.000000  -39.70210605148588  3.830658309465049  -16.568371364718754  42.887552185584305  17.09321042765009  14.018210849469359  3.5601278580141886  42.146092197192694  -17.718095134273167  16.927287426708997  120.000000
